# xmcd
#
# Track frame offsets:
#	150
#	18698
#	35739
#	53967
#	58542
#	76823
#	89747
#	105260
#	115829
#	126388
#	143984
#	161358
#
# Disc length: 2355 seconds
#
# Revision: 1
# Processed by: cddbd v1.5.2PL0 Copyright (c) Steve Scherf et al.
# Submitted via: audiograbber 1.83.01
#
DISCID=a109310c
DTITLE=Shortstack - The History of Cut Nails in America
DYEAR=2006
DGENRE=Rockabilly
TTITLE0=Wiseblood
TTITLE1=Riverbend
TTITLE2=Wreckin' Ball
TTITLE3=Ten Thousand Acres
TTITLE4=Good Intentions
TTITLE5=Two White Horses
TTITLE6=Man in Love
TTITLE7=Red Eyes
TTITLE8=G. B. D. 
TTITLE9=House on Fire
TTITLE10=Tomorrow Never Comes
TTITLE11=El Saboteur
EXTD=
EXTT0=
EXTT1=
EXTT2=
EXTT3=
EXTT4=
EXTT5=
EXTT6=
EXTT7=
EXTT8=
EXTT9=
EXTT10=
EXTT11=
PLAYORDER=
